<svg width="22" height="22" viewBox="0 0 22 22" fill="none" xmlns="http://www.w3.org/2000/svg">
<g id="Group 5">
<path id="Vector" d="M10.681 0C4.78084 0 0 4.78084 0 10.681C0 16.5812 4.78084 21.3621 10.681 21.3621C16.5812 21.3621 21.362 16.5812 21.362 10.681C21.362 4.78084 16.5812 0 10.681 0ZM10.681 19.6531C5.73356 19.6531 1.70896 15.6285 1.70896 10.681C1.70896 5.73359 5.73356 1.70896 10.681 1.70896C15.6285 1.70896 19.6531 5.73359 19.6531 10.681C19.6531 15.6285 15.6285 19.6531 10.681 19.6531Z" fill="#222222"/>
<path id="Vector_2" d="M13.6548 10.0746L9.77545 6.19525C9.4422 5.862 8.8996 5.862 8.56634 6.19525C8.23309 6.5285 8.23309 7.0711 8.56634 7.40435L11.8475 10.6855L8.56634 13.9668C8.23309 14.3 8.23309 14.8426 8.56634 15.1758C8.73297 15.3425 8.95086 15.4279 9.16876 15.4279C9.38665 15.4279 9.60455 15.3425 9.77117 15.1758L13.6505 11.2965C13.8171 11.1299 13.9026 10.9077 13.9026 10.6898C13.9026 10.4634 13.8214 10.2412 13.6548 10.0746Z" fill="#222222"/>
</g>
</svg>
