<svg width="70" height="70" viewBox="0 0 70 70" fill="none" xmlns="http://www.w3.org/2000/svg">
<circle opacity="0.3" cx="35" cy="35" r="35" fill="white"/>
<path fill-rule="evenodd" clip-rule="evenodd" d="M31.2999 35.9896L41.5256 46.2148C42.1551 46.8445 42.1561 47.8629 41.5284 48.4906C40.8964 49.1226 39.8819 49.117 39.2527 48.4878L27.8939 37.129C27.8933 37.1286 27.8929 37.128 27.8925 37.1276C27.8919 37.127 27.8915 37.1266 27.8909 37.1262C27.5754 36.8106 27.4187 36.3996 27.4193 35.9891C27.4209 35.5774 27.5776 35.1667 27.8909 34.8532C27.8915 34.8528 27.8919 34.8522 27.8925 34.8518C27.8929 34.8512 27.8933 34.8508 27.8939 34.8504L39.2527 23.4911C39.8821 22.8617 40.9008 22.8607 41.5284 23.4883C42.1605 24.1204 42.1548 25.135 41.5256 25.7641L31.2999 35.9896Z" fill="#222222"/>
</svg>
