<svg width="70" height="70" viewBox="0 0 70 70" fill="none" xmlns="http://www.w3.org/2000/svg">
<circle opacity="0.3" cx="35" cy="35" r="35" transform="matrix(-1 0 0 1 70 0)" fill="white"/>
<path fill-rule="evenodd" clip-rule="evenodd" d="M38.7001 35.9896L28.4744 46.2148C27.8449 46.8445 27.8439 47.8629 28.4716 48.4906C29.1036 49.1226 30.1181 49.117 30.7473 48.4878L42.1061 37.129C42.1067 37.1286 42.1071 37.128 42.1075 37.1276C42.1081 37.127 42.1085 37.1266 42.1091 37.1262C42.4246 36.8106 42.5813 36.3996 42.5807 35.9891C42.5791 35.5774 42.4224 35.1667 42.1091 34.8532C42.1085 34.8528 42.1081 34.8522 42.1075 34.8518C42.1071 34.8512 42.1067 34.8508 42.1061 34.8504L30.7473 23.4911C30.1179 22.8617 29.0992 22.8607 28.4716 23.4883C27.8395 24.1204 27.8452 25.135 28.4744 25.7641L38.7001 35.9896Z" fill="#222222"/>
</svg>
